<?xml version="1.0" standalone="no"?>
<!DOCTYPE svg PUBLIC "-//W3C//DTD SVG 1.1//EN" "http://www.w3.org/Graphics/SVG/1.1/DTD/svg11.dtd" >
<svg xmlns="http://www.w3.org/2000/svg" xmlns:xlink="http://www.w3.org/1999/xlink" version="1.1">
<metadata>
Created by FontForge 20150401 at Wed May 11 17:04:28 2016
 By Resnowski, Jim
</metadata>
<defs>
<font id="tc-icon-font" horiz-adv-x="512" >
  <font-face 
    font-family="tc-icon-font"
    font-weight="400"
    font-stretch="normal"
    units-per-em="512"
    panose-1="2 0 5 9 0 0 0 0 0 0"
    ascent="448"
    descent="-64"
    bbox="-1 -64.5641 513.5 448.5"
    underline-thickness="25"
    underline-position="-76"
    unicode-range="U+F101-F145"
  />
<missing-glyph 
d="M17 0v341h136v-341h-136zM34 17h102v307h-102v-307z" />
    <glyph glyph-name=".notdef" 
d="M17 0v341h136v-341h-136zM34 17h102v307h-102v-307z" />
    <glyph glyph-name=".null" horiz-adv-x="0" 
 />
    <glyph glyph-name="nonmarkingreturn" 
 />
    <glyph glyph-name="uniF101" unicode="&#xf101;" 
d="M469 320h-426q-6 0 -11 -3t-8 -8t-3 -10v-235q0 -9 6.5 -15t15.5 -6h426q9 0 15.5 6t6.5 15v235q0 8 -6.5 14.5t-15.5 6.5zM469 341q18 0 30.5 -12.5t12.5 -29.5v-235q0 -18 -12.5 -30.5t-30.5 -12.5h-426q-18 0 -30.5 12.5t-12.5 30.5v235q0 8 3.5 16t9 14t13.5 9t17 3
h426zM85 267q0 -5 -3 -8t-7 -3h-22q-3 0 -5.5 1.5t-3.5 4t-1 5.5v21q0 11 10 11h22q10 0 10 -11v-21zM107 203q0 -5 -3 -8t-8 -3h-43q-4 0 -7 3t-3 8v21q0 3 1 5.5t3.5 4t5.5 1.5h43q3 0 5.5 -1.5t4 -4t1.5 -5.5v-21zM128 139q0 -5 -3 -8t-8 -3h-64q-4 0 -7 3t-3 8v21
q0 4 3 7.5t7 3.5h64q5 0 8 -3.5t3 -7.5v-21zM469 139q0 -4 -3 -7.5t-7 -3.5h-43q-4 0 -7.5 3.5t-3.5 7.5v21q0 4 3.5 7.5t7.5 3.5h43q4 0 7 -3.5t3 -7.5v-21zM85 75q0 -5 -3 -8t-7 -3h-22q-3 0 -5.5 1.5t-3.5 4t-1 5.5v21q0 4 3 7.5t7 3.5h22q4 0 7 -3.5t3 -7.5v-21zM341 75
q0 -4 -3 -7.5t-7 -3.5h-214q-2 0 -4 1t-3.5 2.5t-2 3.5t-0.5 4v21q0 4 3 7.5t7 3.5h214q4 0 7 -3.5t3 -7.5v-21zM405 75q0 -4 -3 -7.5t-7 -3.5h-22q-4 0 -7 3.5t-3 7.5v21q0 4 3 7.5t7 3.5h22q4 0 7 -3.5t3 -7.5v-21zM469 75q0 -4 -3 -7.5t-7 -3.5h-22q-4 0 -7 3.5t-3 7.5
v21q0 4 3 7.5t7 3.5h22q4 0 7 -3.5t3 -7.5v-21zM149 267q0 -5 -3 -8t-7 -3h-22q-3 0 -5.5 1.5t-3.5 4t-1 5.5v21q0 11 10 11h22q10 0 10 -11v-21zM171 203q0 -5 -3 -8t-8 -3h-21q-3 0 -5.5 1.5t-4 4t-1.5 5.5v21q0 4 3 7.5t8 3.5h21q5 0 8 -3.5t3 -7.5v-21zM192 139
q0 -4 -3.5 -7.5t-7.5 -3.5h-21q-3 0 -5.5 1.5t-4 4t-1.5 5.5v21q0 4 3 7.5t8 3.5h21q4 0 7.5 -3.5t3.5 -7.5v-21zM256 139q0 -4 -3.5 -7.5t-7.5 -3.5h-21q-4 0 -7.5 3.5t-3.5 7.5v21q0 4 3.5 7.5t7.5 3.5h21q4 0 7.5 -3.5t3.5 -7.5v-21zM320 139q0 -4 -3.5 -7.5t-7.5 -3.5
h-21q-4 0 -7.5 3.5t-3.5 7.5v21q0 4 3.5 7.5t7.5 3.5h21q4 0 7.5 -3.5t3.5 -7.5v-21zM384 139q0 -4 -3.5 -7.5t-7.5 -3.5h-21q-4 0 -7.5 3.5t-3.5 7.5v21q0 4 3.5 7.5t7.5 3.5h21q4 0 7.5 -3.5t3.5 -7.5v-21zM235 203q0 -4 -3.5 -7.5t-7.5 -3.5h-21q-4 0 -7.5 3.5t-3.5 7.5
v21q0 4 3.5 7.5t7.5 3.5h21q4 0 7.5 -3.5t3.5 -7.5v-21zM299 203q0 -4 -3.5 -7.5t-7.5 -3.5h-21q-4 0 -7.5 3.5t-3.5 7.5v21q0 4 3.5 7.5t7.5 3.5h21q4 0 7.5 -3.5t3.5 -7.5v-21zM363 203q0 -4 -3.5 -7.5t-7.5 -3.5h-21q-4 0 -7.5 3.5t-3.5 7.5v21q0 4 3.5 7.5t7.5 3.5h21
q4 0 7.5 -3.5t3.5 -7.5v-21zM469 203q0 -4 -3 -7.5t-7 -3.5h-64q-4 0 -7.5 3.5t-3.5 7.5v21q0 4 3.5 7.5t7.5 3.5h64q4 0 7 -3.5t3 -7.5v-21zM213 267q0 -4 -3 -7.5t-7 -3.5h-22q-4 0 -7 3.5t-3 7.5v21q0 5 3 8t7 3h22q2 0 3.5 -1t3 -2.5t2.5 -3.5t1 -4v-21zM277 267
q0 -4 -3 -7.5t-7 -3.5h-22q-4 0 -7 3.5t-3 7.5v21q0 5 3 8t7 3h22q4 0 7 -3t3 -8v-21zM341 267q0 -4 -3 -7.5t-7 -3.5h-22q-4 0 -7 3.5t-3 7.5v21q0 5 3 8t7 3h22q4 0 7 -3t3 -8v-21zM405 267q0 -4 -3 -7.5t-7 -3.5h-22q-4 0 -7 3.5t-3 7.5v21q0 5 3 8t7 3h22q4 0 7 -3t3 -8
v-21zM469 267q0 -4 -3 -7.5t-7 -3.5h-22q-4 0 -7 3.5t-3 7.5v21q0 5 3 8t7 3h22q4 0 7 -3t3 -8v-21z" />
    <glyph glyph-name="uniF102" unicode="&#xf102;" 
d="M256 448q106 0 181 -75t75 -181t-75 -181t-181 -75t-181 75t-75 181t75 181t181 75zM256 373q-14 0 -23 -9t-9 -22.5t9 -23t23 -9.5t23 9.5t9 23t-9 22.5t-23 9zM331 32v43h-43v213h-85v-43h42v-170h-42v-43h128z" />
    <glyph glyph-name="uniF103" unicode="&#xf103;" 
d="M267 75h32v-22h-86v22h32v170h-32v22h54v-192zM224 309q0 6 3 11t8 8t10 3q9 0 15.5 -6.5t6.5 -15.5t-6.5 -15t-15.5 -6t-15 6t-6 15zM256 -64q-106 0 -181 75t-75 181t75 181t181 75t181 -75t75 -181t-75 -181t-181 -75zM256 427q-97 0 -166 -69t-69 -166t69 -166
t166 -69t166 69t69 166t-69 166t-166 69z" />
    <glyph glyph-name="uniF104" unicode="&#xf104;" 
d="M501 75l-224 53v-128l43 -32v-32l-64 11l-64 -11v32l43 32v128l-224 -53v42l224 118v192q0 8 6 14.5t15 6.5t15 -6.5t6 -14.5v-192l224 -118v-42z" />
    <glyph glyph-name="uniF105" unicode="&#xf105;" 
d="M43 250.5q0 15.5 11 26.5t26 11t26 -11t11 -26q0 -10 -5 -19t-13.5 -14t-18.5 -5q-15 0 -26 11t-11 26.5zM491 192q8 0 14.5 -6.5t6.5 -14.5v-86h-21v43h-470v-43h-21v267q0 11 10.5 11t10.5 -11v-160h470zM459 255q14 -6 22 -17t9 -18l1 -8h-363q0 4 1 9.5t8.5 19.5
t18.5 24t34.5 17t54.5 5q170 -13 214 -32z" />
    <glyph glyph-name="uniF106" unicode="&#xf106;" 
d="M399 240q-32 -32 -62 -37q-37 -7 -55 -21l166 -166q10 -10 10 -24t-10 -24t-24 -10t-24 10q-87 111 -149 183q-18 -19 -41.5 -45t-43.5 -49.5t-38 -44.5t-28 -33l-10 -12q-10 -10 -24.5 -10t-24 10t-9.5 24t10 24q117 98 185 162l-14 14l-2 -2q-11 -11 -26.5 -10
t-25.5 14l-129 174q-10 13 -8.5 28.5t12.5 26.5l4 5l204 -205h1l14 -14q12 17 19 55q3 14 10.5 27t11 17.5t16.5 17.5l89 90q6 6 12 0t0 -12l-97 -97l12 -12l97 97q6 6 11.5 0.5t-0.5 -11.5l-97 -97l12 -12l97 97q6 6 12 0t0 -12l-97 -97l12 -12l97 98q5 5 11 -0.5t0 -11.5z
" />
    <glyph glyph-name="uniF107" unicode="&#xf107;" 
d="M286 92q0 -13 -13 -13h-33q-13 0 -13 13v52q0 13 13 13h33q13 0 13 -13v-52zM359 373q-3 0 -8 4q-36 28 -95 28q-61 0 -95 -28q-10 -8 -18 2t2 18q43 34 112 34q68 0 112 -34q10 -8 2 -18q-5 -6 -12 -6zM436 142q37 15 56 36v-119q0 -22 -15.5 -40t-35.5 -18h-368
q-21 0 -36.5 18t-15.5 40v119q8 -9 22 -18t23 -14l10 -4q59 -28 131 -36v-22q0 -10 7.5 -17.5t18.5 -7.5h46q11 0 18.5 7.5t7.5 17.5v22q32 4 65 13t50 16zM436 353q27 0 46 -18.5t19 -45.5v-61q0 -16 -16 -32t-32 -24l-17 -8q-59 -27 -131 -36v22q0 11 -7.5 18.5t-18.5 7.5
h-46q-11 0 -18.5 -7.5t-7.5 -18.5v-23q-32 4 -65 13t-50 16l-16 7q-3 1 -7.5 3.5t-15.5 9.5t-19.5 14t-15.5 17.5t-7 20.5v61q0 27 19 45.5t46 18.5h360z" />
    <glyph glyph-name="uniF108" unicode="&#xf108;" 
d="M151 397q0 21 15 36t36.5 15t36.5 -15t15 -36t-15 -36t-36.5 -15t-36.5 15t-15 36zM346 -64h-195q-5 0 -10 3t-7.5 7.5t-2.5 9.5q0 9 6 15t14 6h172l-3 41h-69q-41 0 -73.5 24.5t-44.5 64.5l-56 188q-8 28 -8 50v62q0 9 6 15t15 6q8 0 14 -6t6 -15v-61q0 -18 5 -38
l58 -190q7 -26 28.5 -42.5t49.5 -16.5h87q4 0 7.5 -1.5t6.5 -4.5t4.5 -6.5t1.5 -7.5l8 -82q0 -10 -5.5 -15.5t-14.5 -5.5zM428 162q12 0 21 -8.5t10 -20.5v-164q1 -13 -5.5 -22.5t-18.5 -10.5h-2q-24 0 -26 29l-8 135h-145q-13 0 -24.5 8t-15.5 21l-43 143q-3 8 -2 16
t4.5 15t9.5 12.5t14 7.5q16 5 31.5 -3t20.5 -23l41 -135h138z" />
    <glyph glyph-name="uniF109" unicode="&#xf109;" 
d="M395 -64q-5 0 -8 3l-28 26l-27 -26q-8 -7 -15 0l-28 26l-28 -26q-7 -7 -15 0l-27 26l-28 -26q-8 -7 -15 0l-28 26l-27 -26q-5 -4 -12 -2l-1 3.5t-1 6.5v490q0 8 6 10q6 3 12 -2l28 -26l27 26q8 7 15 0l28 -26l28 26q7 7 15 0l27 -26l28 26q8 7 15 0l28 -26l27 26
q-1 3 3 3q2 0 5 -1q6 -2 6 -10v-490q0 -8 -6 -10q-1 -1 -4 -1zM290 -11q4 0 8 -3l27 -25l28 25q8 8 15 0l17 -16v443l-17 -16q-7 -8 -15 0l-28 25l-27 -25q-8 -8 -15 0l-27 25l-28 -25q-7 -8 -15 0l-27 25l-28 -25q-8 -8 -15 0l-15 16v-442l17 16q8 8 15 0l28 -25l27 25
q8 8 15 0l28 -25l28 25q0 2 4 2zM245 320h-64q-10 0 -10 10.5t10 10.5h64q11 0 11 -10.5t-11 -10.5zM331 320h-22q-10 0 -10 10.5t10 10.5h22q10 0 10 -10.5t-10 -10.5zM203 256h-22q-10 0 -10 10.5t10 10.5h22q10 0 10 -10.5t-10 -10.5zM331 256h-22q-10 0 -10 10.5
t10 10.5h22q10 0 10 -10.5t-10 -10.5zM224 192h-43q-10 0 -10 10.5t10 10.5h43q11 0 11 -10.5t-11 -10.5zM331 192h-22q-10 0 -10 10.5t10 10.5h22q10 0 10 -10.5t-10 -10.5zM331 128h-64q-11 0 -11 10.5t11 10.5h64q10 0 10 -10.5t-10 -10.5z" />
    <glyph glyph-name="uniF10A" unicode="&#xf10a;" 
d="M459 350l-45 45l22 22q7 6 15.5 6t14.5 -6l15 -15q6 -6 6 -14.5t-6 -15.5zM27 -19l50 74q5 8 12 15l301 302l45 -45l-302 -302q-7 -7 -15 -12l-74 -50q-8 -6 -15.5 1.5t-1.5 16.5z" />
    <glyph glyph-name="uniF10B" unicode="&#xf10b;" 
d="M467 213q10 0 17 -6t7 -15t-7 -15t-17 -6h-190v-190q0 -10 -6 -17t-15 -7t-15 7t-6 17v190h-190q-10 0 -17 6t-7 15t7 15t17 6h190v190q0 10 6 17t15 7t15 -7t6 -17v-190h190z" />
    <glyph glyph-name="uniF10C" unicode="&#xf10c;" 
d="M416 -43h-267q-31 0 -52.5 22t-21.5 53q0 17 7 32t19.5 25.5t28.5 15.5q-2 8 -2 12q0 23 15.5 38.5t37.5 15.5q9 0 13 -1q4 30 22 54.5t45.5 38.5t58.5 14q53 0 90.5 -37.5t37.5 -90.5v-5q29 -10 46.5 -35t17.5 -56q0 -40 -28 -68t-68 -28zM137 177q-9 -7 -15 -15
q-26 33 -26 73q0 48 34.5 82.5t82.5 34.5q20 0 39 -6.5t34 -18.5t25 -28q-12 0 -23 -4q-30 36 -75 36q-40 0 -68 -28t-28 -68q0 -32 20 -58zM224 21zM224 448zM213.5 384q-10.5 0 -10.5 11v42q0 11 10.5 11t10.5 -11v-42q0 -11 -10.5 -11zM133 363q-6 0 -9 5l-22 37
q-4 9 5 14q9 6 15 -4l21 -37q4 -9 -4 -14q-2 -1 -6 -1zM75 304q-4 0 -6 1l-37 21q-8 5 -4 15q6 9 15 5l37 -22q10 -6 4 -15q-3 -5 -9 -5zM53 224h-42q-11 0 -11 10.5t11 10.5h42q11 0 11 -10.5t-11 -10.5zM352 304q-6 0 -10 5q-5 9 5 15l37 22q9 5 15 -5q5 -9 -4 -15
l-38 -21q-2 -1 -5 -1zM37 123q-6 0 -9 5q-6 9 4 15l37 21q10 4 15 -4q6 -9 -4 -15l-37 -21q-1 -1 -6 -1zM293 363q-3 0 -5 1q-8 5 -4 15l21 37q5 8 15 4q8 -6 4 -15l-21 -37q-4 -5 -10 -5z" />
    <glyph glyph-name="uniF10D" unicode="&#xf10d;" 
d="M337 174l-102 -60q-11 -6 -21.5 0t-10.5 18v119q0 12 10.5 18t21.5 0l102 -59q10 -5 10 -18t-10 -18zM256 -64q-106 0 -181 75t-75 181t75 181t181 75t181 -75t75 -181t-75 -181t-181 -75zM256 427q-97 0 -166 -69t-69 -166t69 -166t166 -69t166 69t69 166t-69 166
t-166 69z" />
    <glyph glyph-name="uniF10E" unicode="&#xf10e;" 
d="M373 235h-170q-11 0 -11 10.5t11 10.5h170q11 0 11 -10.5t-11 -10.5zM245 299h-42q-11 0 -11 10.5t11 10.5h42q11 0 11 -10.5t-11 -10.5zM373 171h-170q-11 0 -11 10.5t11 10.5h170q11 0 11 -10.5t-11 -10.5zM373 107h-170q-11 0 -11 10.5t11 10.5h170q11 0 11 -10.5
t-11 -10.5zM444 318q4 -4 4 -9v-298q0 -11 -11 -11h-53v-53q0 -11 -11 -11h-298q-11 0 -11 11v426q0 11 11 11h53v53q0 11 11 11h170q5 0 9 -4zM320 412v-92h92zM363 -43v43h-224q-11 0 -11 11v352h-43v-406h278zM149 21h278v278h-118q-10 0 -10 10v118h-150v-406z" />
    <glyph glyph-name="uniF10F" unicode="&#xf10f;" 
d="M256 448q69 0 118 -49t49 -118q0 -38 -17 -87t-41.5 -92.5t-49.5 -82t-42 -60.5l-17 -23q-7 9 -18 24t-40 58.5t-51 84t-40 90.5t-18 88q0 69 49 118t118 49zM256 203q32 0 55 23t23 55t-23 54.5t-55 22.5t-55 -22.5t-23 -54.5t23 -55t55 -23z" />
    <glyph glyph-name="uniF110" unicode="&#xf110;" 
d="M302 77q5 -2 9 3l56 55q6 7 12 4q3 -2 53 -32.5t53 -32.5q6 -4 6 -9q0 -2 -1.5 -13t-3.5 -22t-3 -13q-15 -24 -47 -40.5t-73 -14.5q-109 3 -225 124q-59 59 -89.5 129t-27.5 109q2 19 10.5 38.5t16.5 30.5q4 5 11.5 12t15 12.5t10.5 5.5q4 0 27 -1.5t25 -1.5q5 0 8 -6
q5 -11 23.5 -59.5t19.5 -49.5q4 -12 -8 -27q-22 -25 -34 -37q-1 -1 -1.5 -5.5t0.5 -5.5q31 -61 61 -91q16 -17 40 -32.5t39 -22.5t17 -7z" />
    <glyph glyph-name="uniF111" unicode="&#xf111;" 
d="M427 85q26 0 45 -18.5t19 -45t-19 -45.5t-45.5 -19t-45 19t-18.5 45q0 10 1 14l-231 115q-19 -22 -48 -22q-17 0 -31.5 8.5t-23.5 23.5t-9 32q0 26 19 45t45 19q29 0 48 -22l231 115q-1 4 -1 14q0 17 8.5 31.5t23 23.5t32.5 9q26 0 45 -19t19 -45.5t-19 -45t-45 -18.5
q-29 0 -48 22l-231 -115q1 -4 1 -14t-1 -14l231 -115q19 22 48 22z" />
    <glyph glyph-name="uniF112" unicode="&#xf112;" 
d="M42.5 277q-8.5 0 -15 6.5t-6.5 15t6.5 15t15 6.5t15 -6.5t6.5 -15t-6.5 -15t-15 -6.5zM469 277h-341q-9 0 -15 6.5t-6 15t6 15t15 6.5h341q9 0 15.5 -6.5t6.5 -15t-6.5 -15t-15.5 -6.5zM43 171q-6 0 -11 2.5t-8 7.5t-3 11q0 9 6.5 15t15 6t15 -6t6.5 -15t-6.5 -15
t-14.5 -6zM469 171h-341q-9 0 -15 6t-6 15t6 15t15 6h341q9 0 15.5 -6t6.5 -15t-6.5 -15t-15.5 -6zM43 64q-6 0 -11 3t-8 8t-3 10q0 9 6.5 15.5t15 6.5t15 -6.5t6.5 -15t-6.5 -15t-14.5 -6.5zM469 64h-341q-9 0 -15 6.5t-6 15t6 15t15 6.5h341q9 0 15.5 -6.5t6.5 -15
t-6.5 -15t-15.5 -6.5z" />
    <glyph glyph-name="uniF113" unicode="&#xf113;" 
d="M469 341q18 0 30.5 -12.5t12.5 -29.5v-256q0 -18 -12.5 -30.5t-30.5 -12.5h-426q-18 0 -30.5 12.5t-12.5 30.5v256q0 8 3.5 16t9 14t13.5 9t17 3q11 0 15 10l19 36q8 18 29 18h120q20 0 29 -18l18 -36q3 -10 15 -10h181zM32 64h256q-1 1 -1.5 5.5t-2.5 9t-6 7.5
q-19 21 -53 29q-14 4 -22.5 10t-8.5 10v10q19 20 24 52q2 -2 3 -2q3 0 3 3t6 19q6 14 3 18q-2 1 -6 1q6 17 0 34q-2 7 -3 10t-5 11t-9.5 12t-16 8.5t-24.5 7.5q-18 3 -30.5 -1.5t-16.5 -10.5l-5 -6h-2.5h-3t-4 -1.5t-4.5 -4t-5 -7t-5 -10.5q-7 -17 0 -43q-4 0 -4 -1
q-4 -4 2 -19q6 -16 6 -18q0 -3 3 -3l2 2q6 -33 24 -51v-10q0 -4 -8 -10t-23 -10q-36 -9 -53 -29q-4 -4 -6 -8t-2.5 -8.5t-1.5 -5.5zM405 64q9 0 15.5 6.5t6.5 15t-6.5 15t-15.5 6.5h-53q-9 0 -15 -6.5t-6 -15t6 -15t15 -6.5h53zM448 149q9 0 15 6.5t6 15t-6 15t-15 6.5h-96
q-9 0 -15 -6.5t-6 -14.5q0 -6 2.5 -11t7.5 -8t11 -3h96zM448 235q9 0 15 6t6 15t-6 15t-15 6h-96q-9 0 -15 -6t-6 -15t6 -15t15 -6h96z" />
    <glyph glyph-name="uniF114" unicode="&#xf114;" 
d="M475 229q4 -1 7.5 -4t6 -7.5t2.5 -8.5v-33q0 -5 -2.5 -9.5t-6 -7.5t-7.5 -4l-34 -9q-2 0 -4 -0.5t-3 -0.5q-7 -27 -18 -45q2 -4 3 -5l18 -31q8 -16 -3 -27l-23 -23q-13 -11 -27 -3l-30 18q-1 0 -2.5 1t-2.5 2q-23 -12 -45 -18q0 -1 -0.5 -3t-0.5 -4l-9 -34
q-6 -16 -21 -16h-33q-5 0 -9.5 2.5t-7.5 6t-4 7.5l-9 34q0 2 -0.5 4t-0.5 3q-27 7 -45 18q-4 -2 -5 -3l-31 -18q-16 -8 -27 3l-23 23q-11 13 -3 27l18 30q0 1 1 2.5t2 2.5q-12 23 -18 45q-1 0 -3 0.5t-4 0.5l-34 9q-16 6 -16 21v33q0 7 5 13.5t11 7.5l34 9q2 0 4 0.5t3 0.5
q7 27 18 45q-2 4 -3 5l-18 31q-8 14 3 26l23 24q13 11 27 3l30 -18q1 0 2.5 -1t2.5 -2q23 12 45 18q0 1 0.5 3t0.5 4l9 34q6 16 21 16h33q5 0 9.5 -2.5t7.5 -6t4 -7.5l9 -34q0 -2 0.5 -4t0.5 -3q27 -7 45 -18q4 2 5 3l31 18q14 8 27 -3l23 -23q11 -13 3 -27l-18 -31
q0 -1 -1 -2.5t-2 -2.5q12 -23 18 -45q1 0 3 -0.5t4 -0.5zM256 64q53 0 90.5 37.5t37.5 90.5t-37.5 90.5t-90.5 37.5t-90.5 -37.5t-37.5 -90.5t37.5 -90.5t90.5 -37.5z" />
    <glyph glyph-name="uniF115" unicode="&#xf115;" 
d="M277 -43h-256q-8 0 -14.5 6.5t-6.5 15.5v426q0 9 6.5 15.5t14.5 6.5h256q9 0 15.5 -6.5t6.5 -15.5v-64q0 -8 -6.5 -14.5t-15 -6.5t-15 6.5t-6.5 14.5v43h-213v-384h213v43q0 8 6.5 14.5t15 6.5t15 -6.5t6.5 -14.5v-64q0 -9 -6.5 -15.5t-15.5 -6.5zM509 180l-3 -3
l-107 -107q-6 -6 -15 -6t-15 6.5t-6 15t6 14.5l70 71h-290q-8 0 -14.5 6t-6.5 15t6.5 15t14.5 6h290l-70 71q-6 6 -6 14.5t6 15t15 6.5t15 -6l107 -107l3 -3l1 -1q0 -1 0.5 -1.5l0.5 -0.5q1 -2 1 -3q1 -1 1 -2q1 -4 0 -8q-1 -1 -1 -2q-1 -1 -1 -3l-0.5 -0.5t-0.5 -1.5z" />
    <glyph glyph-name="uniF116" unicode="&#xf116;" 
d="M453 83l-73 120l-55 -55l5 -32l-14 -14l-23 32l-32 23l14 14l32 -5l55 55l-119 72l18 18l146 -45l83 82q9 9 18 0t0 -18l-82 -83l45 -146zM314 36q6 -5 5.5 -14t-8.5 -16q-6 -6 -14.5 -6t-14.5 6l-53 53q-8 8 -5 20l-33 33q-33 -27 -75 -27q-49 0 -83 34q-34 35 -34 83.5
t34 83t83 34.5t83 -34q33 -32 35 -78t-27 -80l34 -34q11 4 20 -5zM49 134q28 -28 68 -27.5t69 28.5q28 28 28 68t-28 68q-30 28 -69 28t-68 -29q-28 -28 -28 -68t28 -68z" />
    <glyph glyph-name="uniF117" unicode="&#xf117;" 
d="M286 192l135 -133q7 -8 7.5 -17t-6 -15.5t-15.5 -6t-17 7.5l-134 134l-133 -135q-8 -7 -17 -7.5t-15.5 6t-6 15.5t7.5 17l134 134l-135 133q-7 8 -7.5 17t6 15.5t15.5 6t17 -7.5l134 -134l133 135q8 7 17 7.5t15.5 -6t6 -15.5t-7.5 -17z" />
    <glyph glyph-name="uniF118" unicode="&#xf118;" 
d="M491 277.5q0 -8.5 -7 -15.5l-213 -213q-6 -6 -15 -6t-15 6l-213 213q-7 7 -7 15.5t6.5 15t15 6.5t15.5 -7l198 -198l198 198q7 7 15.5 7t15 -6.5t6.5 -15z" />
    <glyph glyph-name="uniF119" unicode="&#xf119;" 
d="M341.5 -43q-8.5 0 -15.5 7l-213 213q-6 6 -6 15t6 15l213 213q7 7 15.5 7t15 -6.5t6.5 -15t-7 -15.5l-198 -198l198 -198q7 -7 7 -15.5t-6.5 -15t-15 -6.5z" />
    <glyph glyph-name="uniF11A" unicode="&#xf11a;" 
d="M170.5 427q8.5 0 15.5 -7l213 -213q6 -6 6 -15t-6 -15l-213 -213q-7 -7 -15.5 -7t-15 6.5t-6.5 15t7 15.5l198 198l-198 198q-7 7 -7 15.5t6.5 15t15 6.5z" />
    <glyph glyph-name="uniF11B" unicode="&#xf11b;" 
d="M21 106.5q0 8.5 7 15.5l213 213q6 6 15 6t15 -6l213 -213q7 -7 7 -15.5t-6.5 -15t-15 -6.5t-15.5 7l-198 198l-198 -198q-7 -7 -15.5 -7t-15 6.5t-6.5 15z" />
    <glyph glyph-name="uniF11C" unicode="&#xf11c;" 
d="M448 299h-384q-9 0 -15 6t-6 15t6 15t15 6h384q9 0 15 -6t6 -15t-6 -15t-15 -6zM448 43h-384q-9 0 -15 6t-6 15t6 15t15 6h384q9 0 15 -6t6 -15t-6 -15t-15 -6zM448 171h-384q-9 0 -15 6t-6 15t6 15t15 6h384q9 0 15 -6t6 -15t-6 -15t-15 -6z" />
    <glyph glyph-name="uniF11D" unicode="&#xf11d;" 
d="M341 235q-15 0 -21 14t5 25l38 37q-47 42 -111 40.5t-109 -46.5q-47 -47 -47 -113t47 -113q46 -46 112.5 -46t113.5 46q15 15 26 33q4 7 12 9.5t16 -2.5q8 -4 10.5 -12t-2.5 -16q-13 -23 -32 -42q-60 -60 -143 -60t-143 60t-60 143t60 143q58 57 139 59t141 -53l37 38
q11 11 25 5t14 -21v-128h-128z" />
    <glyph glyph-name="uniF11E" unicode="&#xf11e;" 
d="M505 95q5 -3 5 -9.5t-5 -9.5l-94 -55q-6 -3 -11 0t-5 10v33h-313h-61q-8 0 -14.5 6.5t-6.5 15t6.5 15t14.5 6.5h61q27 0 45 19l163 163q31 31 76 31h29v33q0 6 5 9t11 1l94 -55q5 -3 5 -9.5t-5 -9.5l-94 -54q-6 -3 -11 0t-5 9v33h-29q-27 0 -45 -19l-151 -151h225v33
q0 6 5 9t11 0z" />
    <glyph glyph-name="uniF11F" unicode="&#xf11f;" 
d="M323 0h-134q-21 0 -36.5 14t-17.5 35l-18 250h278l-18 -250q-2 -21 -17 -35t-37 -14zM414 331l2 -11h-320l2 11q3 9 9 16.5t14.5 11.5t18.5 4h41q0 8 6.5 14.5t15.5 6.5h106q9 0 15.5 -6.5t6.5 -14.5h41q16 0 27.5 -9t14.5 -23z" />
    <glyph glyph-name="uniF120" unicode="&#xf120;" 
d="M256 418l57 -173h181l-146 -106l55 -174l-147 108l-147 -108l55 174l-146 106h181z" />
    <glyph glyph-name="uniF121" unicode="&#xf121;" 
d="M471 222q13 -12 12.5 -30t-13.5 -31l-184 -184q-13 -13 -30.5 -13t-30.5 13l-184 184q-13 13 -13 30.5t13 30.5l184 185q13 13 30.5 13t30.5 -13zM347 291q1 7 -3 11t-12 2l-81 -22q-6 -2 -7.5 -8.5t2.5 -10.5l15 -14l-51 -52q-19 -17 -19 -44v-68h43v70q0 8 6 15l51 51
l15 -15q5 -5 11 -3.5t7 7.5z" />
    <glyph glyph-name="uniF122" unicode="&#xf122;" 
d="M395 448l6 -11v-490l-11 -11l-34 32l-34 -32l-34 32l-34 -32l-34 32l-34 -32l-35 32l-34 -32l-10 11v490l10 11l37 -32l34 32l34 -32l34 32l36 -32l34 32l35 -32zM160 363q-11 0 -11 -11t11 -11h85q11 0 11 11t-11 11h-85zM160 299q-11 0 -11 -11t11 -11h43q10 0 10 11
t-10 11h-43zM160 235q-11 0 -11 -11t11 -11h64q11 0 11 11t-11 11h-64zM245 149q11 0 11 11t-11 11h-85q-11 0 -11 -11t11 -11h85zM352 85q11 0 11 11t-11 11h-85q-11 0 -11 -11t11 -11h85zM352 149q11 0 11 11t-11 11h-43q-10 0 -10 -11t10 -11h43zM352 213q11 0 11 11
t-11 11h-43q-10 0 -10 -11t10 -11h43zM352 277q11 0 11 11t-11 11h-43q-10 0 -10 -11t10 -11h43zM352 341q11 0 11 11t-11 11h-43q-10 0 -10 -11t10 -11h43z" />
    <glyph glyph-name="uniF123" unicode="&#xf123;" 
d="M128 75q-9 0 -15 6t-6 15t6 15l122 122l42 -43l112 112l-22 22l102 28l-27 -102l-23 22l-142 -142l-42 43l-92 -92q-6 -6 -15 -6zM64 0h427v-43h-427h-21h-22v448h43v-405z" />
    <glyph glyph-name="uniF124" unicode="&#xf124;" 
d="M480 13q10 -10 10 -23.5t-9 -23t-22 -9.5t-23 10l-85 85q-14 14 -9 31l-41 42q-48 -40 -109 -40q-70 0 -120.5 50.5t-50.5 120.5t50.5 120.5t120.5 50.5t120.5 -50.5t50.5 -120.5q0 -62 -41 -108l42 -41q18 3 31 -9zM192 128q53 0 90.5 37.5t37.5 90.5t-37.5 90.5
t-90.5 37.5t-90.5 -37.5t-37.5 -90.5t37.5 -90.5t90.5 -37.5z" />
    <glyph glyph-name="uniF125" unicode="&#xf125;" 
d="M144 169q-16 -6 -36 13.5t-13 47.5q8 30 45 66t56 34q11 -2 15 -10t3 -16l-2 -7q-35 -65 -37 -85q-4 -35 -31 -43zM238 377.5q0 29.5 20.5 50t49.5 20.5t50 -20.5t21 -50t-21 -50t-50 -20.5t-49.5 20.5t-20.5 50zM447 288q6 -8 6 -14t-4 -10l-4 -4q-2 -1 -6 -4l-27 -310
q-2 -10 -12 -10q-10 2 -10 12l26 290q-32 -26 -43 -26l-79 -2q-9 -14 -13 -34q-3 -15 -2 -28.5t5 -16.5q2 -1 13.5 -13t23 -23t12.5 -12q9 -7 12 -21q0 -1 3 -20.5t7 -41t6 -33.5q2 -18 -10.5 -26t-26.5 -2t-16 22q-1 24 -6.5 51t-10.5 36q-5 10 -37 37q-21 20 -25 2
q-6 -19 -17 -29q-2 -2 -21 -23t-43 -46.5t-38 -39.5q-22 -23 -41 -7q-18 13 -6 32l4 6q6 6 36.5 38.5t55 59.5t30.5 35q6 10 5.5 34.5t4.5 54.5q19 82 63 91q19 4 33 -8q6 -4 7.5 -11t0.5 -11l-1 -5q2 0 6 -0.5t14 -1.5t18 -1.5t15.5 -0.5t9.5 1l46 30q4 4 10 6l5 50
q2 10 11 10q10 -2 10 -12l-4 -48q2 -1 4 -3z" />
    <glyph glyph-name="uniF126" unicode="&#xf126;" 
d="M396 241q-37 -73 -115 -95l-11 -3q2 -132 31 -171l50 -11q21 -5 33 -24h-256q12 19 33 24l50 11q31 41 31 171l-11 3q-78 22 -115 95q-36 74 -6 149l23 58h246l23 -58q30 -75 -6 -149zM130 382q-17 -45 -7 -94h266q12 46 -7 94l-18 45h-216z" />
    <glyph glyph-name="uniF127" unicode="&#xf127;" 
d="M494 256q8 0 13 -5t4 -13q0 -14 -14 -17l-32 -8q7 -2 12.5 -6.5t9 -11.5t3.5 -15v-130v-17v-16q0 -7 -5 -12t-12 -5h-72q-7 0 -12 5t-5 12v26h-256v-26q0 -7 -5 -12t-12 -5h-72q-7 0 -12.5 5t-5.5 12v16v17v130q0 12 7 21t18 12l-32 8q-14 2 -14 17q0 8 5 13t13 5h55
l29 77q8 18 26 21q57 9 128 9t128 -9q18 -3 26 -21l29 -77h55zM171 128v17q0 18 -18 21l-90 15v-32q0 -8 6 -14.5t15 -6.5h87zM94 217q94 7 162 7q70 0 162 -7l-39 102q-49 8 -123 8t-123 -8zM359 166q-18 -3 -18 -21v-17h87q9 0 15 6.5t6 14.5v32z" />
    <glyph glyph-name="uniF128" unicode="&#xf128;" 
d="M213 45v-2h-106v-43q0 -9 -6.5 -15t-15.5 -6h-42q-6 0 -11 2.5t-8 7.5t-3 11v49q-21 11 -21 36v278q0 35 25 60t60 25h171q35 0 60 -25t25 -60v-150q-17 -5 -25 -20h-1q-19 0 -34.5 -9.5t-23.5 -25.5l-32 -65q-12 -24 -12 -48zM128 427q-9 0 -15 -6.5t-6 -15t6 -15
t15 -6.5h85q6 0 11 3t8 8t3 10q0 9 -6.5 15.5t-15.5 6.5h-85zM43 331v-86q0 -13 9 -22.5t23 -9.5h192q13 0 22.5 9.5t9.5 22.5v86q0 13 -9.5 22.5t-22.5 9.5h-192q-9 0 -16.5 -4.5t-11.5 -11.5t-4 -16zM74.5 85q13.5 0 23 9.5t9.5 22.5q0 9 -4.5 16.5t-11.5 11.5t-16 4
q-14 0 -23 -9t-9 -22.5t9 -23t22.5 -9.5zM506 79q5 -13 7 -31v-59v-10v-22q0 -8 -6 -14.5t-15 -6.5h-22q-8 0 -14.5 6.5t-6.5 14.5v22h-149v-22q0 -8 -6.5 -14.5t-15.5 -6.5h-21q-9 0 -15 6.5t-6 14.5v22v10v55q0 22 8 38l32 65q13 24 39 24h16q0 8 6 14.5t15 6.5h43
q8 0 14.5 -6.5t6.5 -14.5h25q12 0 23 -7.5t16 -19.5zM277.5 0q8.5 0 15 6.5t6.5 15t-6.5 15t-15 6.5t-15 -6.5t-6.5 -15t6.5 -15t15 -6.5zM276 64v-1h198q5 0 8.5 4.5t0.5 10.5l-22 57q-5 14 -20 14h-126q-15 0 -20 -11l-28 -59q-3 -5 0.5 -10t8.5 -5zM469.5 0q8.5 0 15 6.5
t6.5 15t-6.5 15t-15 6.5t-15 -6.5t-6.5 -15t6.5 -15t15 -6.5z" />
    <glyph glyph-name="uniF129" unicode="&#xf129;" 
d="M386 301l-23 -24v-256l20 -21q22 -21 22 -52v-12h-298v12q0 31 22 53l20 20v256l-23 25q-19 17 -19 45v101h42v-43h43v43h43v-43h42v43h43v-43h43v43h42v-102q0 -26 -19 -45zM299 21v150q0 17 -12.5 29.5t-30.5 12.5q-12 0 -21.5 -5.5t-15.5 -15.5t-6 -21v-150h86z" />
    <glyph glyph-name="uniF12A" unicode="&#xf12a;" 
d="M437 363q21 0 38 -10t27 -27.5t10 -37.5v-192q0 -31 -21.5 -53t-53.5 -22h-362q-32 0 -53.5 22t-21.5 53v192q0 31 21.5 53t53.5 22h362zM75 320q-14 0 -23 -9t-9 -23v-11h426v11q0 14 -9 23t-23 9h-362zM437 64q14 0 23 9t9 23v96h-426v-96q0 -14 9 -23t23 -9h362z
M75 107v42h128v-42h-128z" />
    <glyph glyph-name="uniF12B" unicode="&#xf12b;" 
d="M256 -64q-48 0 -105 33q-36 20 -55 20q-11 0 -22 -1t-19 -2t-14 -2.5t-9.5 -2.5l-3.5 -1q-8 -3 -16.5 1t-10.5 13q-3 8 1 16t12 10l4.5 1.5t12 3t17 3.5t22.5 3t26 1q31 0 76 -26q19 -10 26.5 -14t24.5 -8.5t33 -4.5q38 0 83 27q47 26 77 26q16 0 35.5 -3t31 -5.5
t13.5 -3.5q9 -2 13 -9.5t2 -15.5q-2 -9 -10 -13.5t-16 -1.5q-39 9 -69 9q-17 0 -55 -20q-57 -33 -105 -33zM182 25q-28 16 -49 22q-14 98 -58 177q18 16 91 40t90 24q7 0 32.5 -7t54.5 -16.5t57 -21t37 -19.5q-44 -79 -58 -177q-21 -6 -49 -22q-45 -25 -74 -25t-74 25z
M372 324l13 -38q-34 13 -77 25t-52 12q-7 0 -28 -5.5t-50 -14.5t-51 -17l13 38q91 30 116 30q10 0 46 -9t70 -21zM347 399l12 -37q-81 27 -103 27t-103 -27l12 37q71 22 91 22q18 0 91 -22zM288 395h-64v42l22 8q11 3 21 0l21 -8v-42z" />
    <glyph glyph-name="uniF12C" unicode="&#xf12c;" 
d="M187 363h147q13 0 24 -7.5t15 -19.5l27 -64q6 -16 6 -32v-59v-10v-22q0 -5 -2.5 -10t-7.5 -8t-11 -3h-21q-9 0 -15.5 6.5t-6.5 14.5v22h-170v-22q0 -8 -6.5 -14.5t-15.5 -6.5h-21q-9 0 -15 6.5t-6 14.5v22v10v55q0 22 8 38l32 65q13 24 39 24zM149 192q6 0 11 3t8 8t3 10
q0 9 -6.5 15.5t-15 6.5t-15 -6.5t-6.5 -15t6.5 -15t14.5 -6.5zM148 256v-1h219q6 0 9 4.5t1 10.5l-23 57q-5 14 -20 14h-147q-15 0 -20 -11l-28 -59q-2 -2 -1.5 -5t2 -5t4 -3.5t4.5 -1.5zM362.5 192q8.5 0 15 6.5t6.5 14.5q0 6 -3 11t-8 8t-10 3q-9 0 -15.5 -6.5t-6.5 -15
t6.5 -15t15 -6.5zM256 -64q-48 0 -105 33q-36 20 -55 20q-11 0 -22 -1t-19 -2t-14 -2.5t-9.5 -2.5l-3.5 -1q-8 -3 -16.5 1t-10.5 13q-3 8 1 16t12 10l4.5 1.5t12 3t17 3.5t22.5 3t26 1q31 0 76 -26q19 -10 26.5 -14t24.5 -8.5t33 -4.5q38 0 83 27q47 26 77 26q16 0 35.5 -3
t31 -5.5t13.5 -3.5q9 -2 13 -9.5t2 -15.5q-2 -9 -10 -13.5t-16 -1.5q-39 9 -69 9q-17 0 -55 -20q-57 -33 -105 -33zM501 171q11 0 11 -11v-32q0 -43 -16 -85q-46 10 -80 10q-35 0 -86 -28q-45 -25 -74 -25t-74 25q-51 28 -86 28q-45 0 -80 -10q-7 19 -11 40t-5 33v12v299
q0 8 6.5 14.5t14.5 6.5h86q8 0 14.5 -6.5t6.5 -14.5v-54q0 -10 -9 -17l-76 -57v-150q0 -17 12.5 -29.5t29.5 -12.5h342q17 0 29.5 12.5t12.5 29.5v11q0 11 11 11h21zM21 427v-43h86v43h-86z" />
    <glyph glyph-name="uniF12D" unicode="&#xf12d;" 
d="M267 192q0 15 9.5 26.5t24.5 15.5q8 -21 8 -42q0 -44 -31 -75.5t-75 -31.5h-96q-44 0 -75.5 31.5t-31.5 75.5t31.5 75.5t75.5 31.5h96q17 0 30 -5q-22 -16 -35 -38h-91q-27 0 -45.5 -19t-18.5 -45t18.5 -45t45.5 -19h96q17 0 31.5 8.5t23.5 23.5t9 32zM245 192
q0 -15 -9.5 -26.5t-24.5 -15.5q-8 21 -8 42q0 44 31 75.5t75 31.5h96q44 0 75.5 -31.5t31.5 -75.5t-31.5 -75.5t-75.5 -31.5h-96q-17 0 -30 5q22 16 35 38h91q27 0 45.5 19t18.5 45t-18.5 45t-45.5 19h-96q-17 0 -31.5 -8.5t-23.5 -23.5t-9 -32z" />
    <glyph glyph-name="uniF12E" unicode="&#xf12e;" 
d="M395 141q23 -32 20 -94q0 -6 -13.5 -13t-49.5 -13t-86 -6t-86.5 6t-50 13t-13.5 13q0 60 23 94q12 17 32 17h16q28 0 41 32q-16 16 -23 38q-9 2 -13 16.5t-4 23.5q0 6 8 6v11q0 78 70.5 78t70.5 -78v-11q9 0 9 -6q0 -9 -4.5 -23.5t-12.5 -16.5q-9 -23 -24 -38
q13 -32 42 -32h16q20 0 32 -17zM124 154q-15 -21 -23 -60q-33 0 -57.5 4t-34 8.5t-9.5 8.5q0 41 16 64q7 12 21 12h11q19 0 28 21q-10 12 -16 27q-6 1 -9 10.5t-3 16.5q0 4 5 4v7q0 55 49 55q48 0 48 -54v-7q6 0 6 -4q0 -6 -3 -16t-9 -11q-5 -15 -16 -27q8 -21 28 -21h10
q13 0 22 -12l1 -1h-15q-33 0 -50 -25zM505 158q7 -16 8 -49q0 -16 -78 -16q-7 38 -22 58q-11 15 -25 21h12h3q13 0 15 19q-11 5 -19 16q-13 -4 -20 -12q0 1 -1 11.5t-0.5 20.5t1.5 23.5t5 24.5t11 18q9 11 29 15t26 -6q10 4 23 -8q23 -24 16 -98q-14 10 -21 12
q-8 -11 -19 -16q2 -19 15 -19h3h15q18 0 23 -15z" />
    <glyph glyph-name="uniF12F" unicode="&#xf12f;" 
d="M398 385q-11 -10 -11.5 -25.5t10 -26t26 -10.5t25.5 11l26 -26q16 -16 16 -38.5t-16 -38.5l-58 -57q-13 13 -25.5 0t-0.5 -26l-173 -174q-16 -16 -38.5 -16t-38.5 16l-26 26q11 10 11 25.5t-10.5 26t-26 10.5t-25.5 -11l-26 26q-16 16 -16 38.5t16 38.5l175 173
q13 -12 26 0.5t0 25.5l57 58q16 16 38.5 16t38.5 -16zM292 123l-46 31l1 54l-43 -33l-53 18l19 -52l-33 -44l54 1l32 -45l17 54zM372 192q11 13 0 26q-13 12 -25.5 -0.5t0 -25.5t25.5 0zM326 237q6 5 6 13t-6 12q-12 13 -25 0.5t0 -25.5t25 0zM282 282q5 5 5 12.5t-5 12.5
q-13 13 -26 0t0 -25.5t26 0.5z" />
    <glyph glyph-name="uniF130" unicode="&#xf130;" 
d="M355 43l123 -107h-60l-21 21h-281l-21 -21h-60l122 106h-15q-28 0 -47 20q-19 22 -17 48l15 261q1 27 19 46.5t45 23.5q99 14 198 0q27 -4 45 -23.5t19 -46.5l15 -260q2 -28 -17 -48q-20 -20 -47 -20h-15zM362.5 85q13.5 0 23 9.5t9.5 22.5q0 9 -4.5 16.5t-11.5 11.5
t-16 4q-14 0 -23 -9t-9 -22.5t9 -23t22.5 -9.5zM213 427q-8 0 -14.5 -6.5t-6.5 -15t6.5 -15t14.5 -6.5h86q8 0 14.5 6.5t6.5 15t-6.5 15t-14.5 6.5h-86zM114 363l-11 -171h306l-10 171h-285zM117 117.5q0 -13.5 9.5 -23t22.5 -9.5q9 0 16.5 4.5t11.5 11.5t4 16q0 14 -9 23
t-22.5 9t-23 -9t-9.5 -22.5zM158 0h195l-21 21h-153z" />
    <glyph glyph-name="uniF131" unicode="&#xf131;" 
d="M238 107l-80 138q-6 11 0 21.5t18 10.5h160q12 0 18 -10.5t0 -21.5l-80 -138q-5 -11 -18 -11t-18 11z" />
    <glyph glyph-name="uniF132" unicode="&#xf132;" 
d="M171 210l138 80q11 6 21.5 0t10.5 -18v-160q0 -12 -10.5 -18t-21.5 0l-138 80q-11 5 -11 18t11 18z" />
    <glyph glyph-name="uniF133" unicode="&#xf133;" 
d="M341 174l-138 -80q-11 -6 -21.5 0t-10.5 18v160q0 12 10.5 18t21.5 0l138 -80q11 -5 11 -18t-11 -18z" />
    <glyph glyph-name="uniF134" unicode="&#xf134;" 
d="M274 277l80 -138q6 -11 0 -21.5t-18 -10.5h-160q-12 0 -18 10.5t0 21.5l80 138q5 11 18 11t18 -11z" />
    <glyph glyph-name="uniF135" unicode="&#xf135;" 
d="M459 28q8 -7 4 -17.5t-15 -10.5h-384q-11 0 -15 10.5t4 17.5l17 15q37 31 37 80v112q0 52 32.5 92.5t82.5 52.5q-9 12 -9 25q0 18 12.5 30.5t30.5 12.5t30.5 -12.5t12.5 -30.5q0 -13 -9 -25q25 -6 46 -19.5t36.5 -32.5t24 -43t8.5 -50v-112q0 -49 37 -80zM213 308
q8 5 10 13.5t-2 16.5q-4 7 -12.5 9.5t-16.5 -1.5q-30 -17 -47.5 -47.5t-17.5 -64.5v-53q0 -8 6 -14.5t15 -6.5t15.5 6.5t6.5 14.5v52q0 23 11.5 43.5t31.5 31.5zM195 -21h122q-8 -19 -24 -31t-37 -12t-37.5 12t-23.5 31z" />
    <glyph glyph-name="uniF136" unicode="&#xf136;" 
d="M459 28q8 -7 4 -17.5t-15 -10.5h-128q0 -26 -19 -45t-45 -19t-45 19t-19 45h-128q-11 0 -15 10.5t4 17.5l17 15q37 31 37 80v112q0 52 32.5 92.5t82.5 52.5q-9 12 -9 25q0 18 12.5 30.5t30.5 12.5t30.5 -12.5t12.5 -30.5q0 -13 -9 -25q25 -6 46 -19.5t36.5 -32.5t24 -43
t8.5 -50v-112q0 -49 37 -80zM126 43h260q-23 37 -23 80v112q0 44 -31.5 75t-75.5 31t-75.5 -31t-31.5 -75v-112q0 -43 -23 -80z" />
    <glyph glyph-name="uniF137" unicode="&#xf137;" 
d="M203 43h-128q-14 0 -23 9t-9 23v234q0 14 9 23t23 9h128q13 0 22.5 -9t9.5 -23v-234q0 -9 -4.5 -16.5t-11.5 -11.5t-16 -4zM437 43h-128q-13 0 -22.5 9t-9.5 23v234q0 9 4.5 16.5t11.5 11.5t16 4h128q14 0 23 -9t9 -23v-234q0 -14 -9 -23t-23 -9z" />
    <glyph glyph-name="uniF138" unicode="&#xf138;" 
d="M96 256h-85q-11 0 -11 10.5t11 10.5h85q11 0 11 -10.5t-11 -10.5zM96 192h-64q-11 0 -11 10.5t11 10.5h64q11 0 11 -10.5t-11 -10.5zM96 128h-21q-11 0 -11 10.5t11 10.5h21q11 0 11 -10.5t-11 -10.5zM314 179l-172 136q9 5 18 5h320q9 0 18 -5l-172 -136q-5 -5 -12 0z
M340 162l171 135q0 -1 0.5 -4t0.5 -5v-192q0 -14 -9 -23t-23 -9h-320q-14 0 -23 9t-9 23v192q0 2 0.5 5t0.5 4l171 -135q9 -6 20 -6q12 0 20 6z" />
    <glyph glyph-name="uniF139" unicode="&#xf139;" 
d="M75 405h362q11 0 21 -4t17 -11t11.5 -17t4.5 -21v-96h-43v96q0 11 -11 11h-362q-11 0 -11 -11v-96h-43v96q0 22 15.5 37.5t38.5 15.5zM377.5 100.5q6.5 -6.5 6.5 -15t-6 -15.5l-107 -106l-3 -3l-1 -2q-1 0 -1.5 -0.5l-0.5 -0.5q-2 -1 -3 -1q-1 -1 -2 -1q-4 -1 -8 0
q-1 1 -2 1q-1 1 -3 1l-0.5 0.5t-1.5 0.5l-1 2l-3 3l-107 106q-6 7 -6 15.5t6.5 15t15 6.5t14.5 -7l71 -70v269q0 8 6 14.5t15 6.5t15 -6.5t6 -14.5v-269l71 70q6 7 14.5 7t15 -6.5z" />
    <glyph glyph-name="uniF13A" unicode="&#xf13a;" 
d="M437 -21h-362q-23 0 -38.5 15.5t-15.5 37.5v96h43v-96q0 -11 11 -11h362q11 0 11 11v96h43v-96q0 -22 -15.5 -37.5t-38.5 -15.5zM378 314q6 -7 6 -15.5t-6.5 -15t-15 -6.5t-14.5 7l-71 70v-269q0 -8 -6 -14.5t-15 -6.5t-15 6.5t-6 14.5v269l-71 -71q-6 -7 -14.5 -7
t-15 6.5t-6.5 15t6 15.5l107 106l3 3l1 1q1 0 1.5 1l0.5 1q2 1 3 1q1 1 2 1q5 0 8 1q1 -1 2 -1q1 -1 3 -1l0.5 -0.5t1.5 -0.5l1 -2l1 -1l2 -2z" />
    <glyph glyph-name="uniF13B" unicode="&#xf13b;" 
d="M384 427q44 0 75.5 -31.5t31.5 -75.5v-107h-43v22h21l-21 21v64q0 26 -19 45t-45 19t-45 -19t-19 -45v-85h32q9 0 16.5 -4.5t11.5 -11.5t4 -16v-214q0 -13 -9 -22.5t-23 -9.5h-277q-9 0 -16.5 4.5t-11.5 11.5t-4 16v214q0 13 9 22.5t23 9.5h202v85q0 44 31.5 75.5
t75.5 31.5zM235 79q14 6 23 19.5t9 29.5q0 22 -15.5 37.5t-38 15.5t-38 -15.5t-15.5 -37.5q0 -35 32 -49v-58h43v58z" />
    <glyph glyph-name="uniF13C" unicode="&#xf13c;" 
d="M395 235q13 0 22.5 -9.5t9.5 -22.5v-214q0 -13 -9.5 -22.5t-22.5 -9.5h-278q-13 0 -22.5 9.5t-9.5 22.5v214q0 13 9.5 22.5t22.5 9.5h32v85q0 44 31.5 75.5t75.5 31.5t75.5 -31.5t31.5 -75.5v-85h32zM192 320v-85h128v85q0 26 -19 45t-45 19t-45 -19t-19 -45zM277 79
q15 6 23.5 19.5t8.5 29.5q0 22 -15.5 37.5t-37.5 15.5t-37.5 -15.5t-15.5 -37.5q0 -35 32 -49v-58h42v58z" />
    <glyph glyph-name="uniF13D" unicode="&#xf13d;" 
d="M75 241q-8 0 -10 5q-4 6 1 11q32 46 80 70q50 26 110 26t110 -26q49 -23 80 -69q7 -10 -3 -15q-10 -6 -15 3q-29 41 -73 62q-48 24 -100 24q-55 0 -100 -24q-45 -22 -74 -63q0 -4 -6 -4zM318 -21h-3q-47 13 -79 44q-46 46 -46 111q0 26 19 45q18 18 46 18q25 0 47 -18
q19 -19 19 -45q0 -17 13 -28q12 -12 32 -12q18 0 32 12q13 12 13 28q0 61 -46 104q-44 43 -110 43q-47 0 -84 -24q-39 -24 -58 -63q-12 -23 -12 -60q0 -41 14 -76q3 -10 -7 -13t-13 6q-16 45 -16 84q0 38 15 70q21 46 65 72q42 27 96 27q74 0 125 -49q51 -50 51 -118
q0 -27 -19 -44q-20 -18 -47 -18q-26 0 -46 18q-19 17 -19 44q0 17 -13 29.5t-32 12.5t-32 -12.5t-13 -29.5q0 -56 41 -96q28 -29 70 -40q9 -1 8 -13q-3 -9 -11 -9zM380 353q-5 0 -6 1q-56 30 -118 30q-66 0 -119 -30q-7 -3 -11 0t-4 9q0 4 5 9q58 32 129 32q65 0 129 -32
q7 -5 5 -11q-1 -8 -10 -8zM208 -18q-4 0 -7 3q-27 26 -43 58q-24 42 -24 91q0 48 36 81q35 35 85 35t85 -35q35 -33 35 -81q0 -9 -10.5 -9t-10.5 9q0 39 -29 67q-29 27 -70 27t-70 -27q-29 -28 -29 -67q0 -48 19 -82q13 -23 40 -52q9 -7 0 -15q-1 -3 -7 -3zM265 134
q0 -36 27 -64q27 -26 69 -26q4 0 8 1t12 1q6 0 8 -1q6 -2 6 -7q1 -11 -9 -12q-17 -3 -25 -3q-41 0 -67 20q-51 35 -51 92q0 11 11 11q11 -1 11 -12z" />
    <glyph glyph-name="uniF13E" unicode="&#xf13e;" 
d="M43 111q-7 0 -9 6q-13 37 -13 75q0 34 10 66q2 9 12 7q8 -2 6 -12q-8 -26 -8 -61q0 -36 10 -68q4 -10 -6 -12q-1 0 -1.5 -0.5zM53 282q-3 0 -4 1q-8 4 -4 12q29 60 85.5 95.5t123.5 36.5q9 0 9 -10t-9 -10q-62 0 -113.5 -32.5t-78.5 -88.5q-3 -4 -9 -4zM481 189
q-10 0 -10 9q-1 78 -52.5 136.5t-129.5 70.5q-9 2 -7 11q1 9 10 7q84 -12 140 -76t59 -149q0 -9 -10 -9zM229 -42q-3 0 -4 1q-8 4 -4 13q4 10 13 31q3 10 11 6q10 -4 6 -12q-7 -16 -13 -32q-2 -7 -9 -7zM254 27h-2q-11 2 -7 11q2 6 4 15.5t3 13.5q2 13 3 27t1 26t-1 23
t-2 19.5t-2 15t-1.5 10l-0.5 3.5q-2 8 6 12q8 1 12 -7q1 -2 3.5 -19t4 -47.5t-3.5 -64.5q-2 -16 -6 -30q-5 -8 -11 -8zM271 -43q-2 0 -3 1q-10 4 -6 12q19 50 27 96q1 2 1 4.5t0.5 4.5t0.5 4q2 8 11 8q8 -1 8 -10q0 -4 -2 -13q-9 -55 -27 -100q-5 -7 -10 -7zM191 -33
q-3 0 -4 1q-9 4 -5 13q21 42 29 85q10 54 -2 117q0 2 -0.5 4.5t-0.5 4.5q0 19 14 33t33 14q11 0 20.5 -4.5t16 -13t9.5 -18.5q0 -1 1 -5.5t2 -13t2.5 -18.5t2 -23.5t0.5 -27.5q0 -9 -9.5 -9t-9.5 9q0 21 -2 41.5t-4 31.5l-2 10q-6 22 -28 22q-12 0 -20 -8.5t-8 -19.5v-5
q12 -67 2 -124q-8 -47 -31 -91q0 -5 -6 -5zM449 67q-10 0 -10 10q2 15 2 47q0 9 9.5 9t9.5 -9q0 -33 -1 -49q0 -3 -3 -5.5t-7 -2.5zM449 153q-7 0 -10 8l-6 54q-10 67 -60.5 111t-116.5 44q-38 0 -70 -14q-9 -4 -13 6q-5 8 5 12q38 15 78 15q48 0 90.5 -22t70 -60.5
t34.5 -86.5q0 -1 1 -8t3 -20.5t3 -28.5q1 -8 -9 -10zM67 59q-2 0 -3 1q-9 3 -5 11q4 10 5 18q6 25 -2 70q-3 16 -3 33q0 49 22.5 92t62.5 70q7 6 13 -2q5 -7 -2 -13q-36 -25 -56.5 -64t-20.5 -83q0 -11 2 -30q9 -51 2 -78q-1 -9 -6 -19q-2 -6 -9 -6zM94 26q-3 0 -4 1
q-9 4 -5 12q10 19 15 45q7 39 -2 83q-2 18 -2 25q0 66 47 113t113 47q18 0 39 -5q11 -2 7 -12q-2 -10 -12 -6q-16 4 -35 4q-58 0 -99.5 -41.5t-41.5 -99.5q0 -6 2 -21q9 -48 2 -90q-4 -25 -16 -49q-3 -6 -8 -6zM405 14h-1q-9 2 -7 11q0 3 1 11t2 12q5 43 4 79.5t-5 60.5
l-3 23q-3 21 -13 40.5t-25 35.5t-34 27q-3 1 -4 5t1 7q2 4 6 5t7 -1q32 -18 53.5 -49t27.5 -68q16 -81 5 -169q0 -5 -1 -13t-2 -12q-1 0 -5 -2.5t-7 -2.5zM359 -17h-2q-10 2 -6 12q11 47 14 79q6 67 -8 139q0 2 -0.5 4l-1 4t-1.5 4q-4 10 7 12q9 4 11 -7q1 -1 1.5 -4
t1.5 -5.5t2 -3.5q14 -81 7 -146q-3 -38 -15 -81q-1 -7 -10 -7zM149 84q-9 2 -9 11q1 11 1 23t-0.5 20.5t-1.5 15.5t-2 11v4q-3 14 -3 23q0 50 36 86t86 36q59 0 96 -47q5 -8 -2 -13q-7 -6 -13 2q-30 39 -81 39q-43 0 -73 -30t-30 -73q0 -7 2 -20q9 -29 3 -80q0 -8 -9 -8z
M123 0q-4 0 -5 1q-8 4 -4 13q13 25 18 45q2 8 12 6q8 -2 6 -12q-6 -24 -19 -48q-2 -5 -8 -5zM315 -35h-4q-8 3 -6 12q16 45 21 94q8 69 -6 134q-5 22 -23 37t-41 15q-12 0 -22 -4t-12 5q-4 10 5 12q16 5 29 5q20 0 37.5 -8.5t29.5 -24t16 -34.5q15 -72 7 -139
q-5 -46 -23 -99q-2 -5 -8 -5zM156 -19q-3 0 -5 1q-8 4 -4 13q20 38 27 76q8 48 -2 106q-1 4 -1 15q0 32 21 55q6 8 13 2q8 -6 1 -13q-16 -18 -16 -44q0 -9 1 -12q10 -61 2 -112q-6 -40 -29 -83q-2 -4 -8 -4z" />
    <glyph glyph-name="uniF13F" unicode="&#xf13f;" 
d="M270 29q-2 -14 -9 -40q-1 -9 -11 -9h-4q-12 4 -8 15q2 10 7 37q3 14 4 28t1.5 26.5t0 24.5t-1.5 22.5t-2 19.5t-2 16.5t-2 12.5t-1.5 8l-0.5 3q-4 11 9 15q10 4 15 -9q2 -6 5 -25.5t5.5 -61.5t-5.5 -83zM304 399q12 -3 10 -15q-4 -12 -16 -9q-25 6 -46 6
q-77 0 -131 -54.5t-54 -130.5q0 -8 2 -27q11 -54 6 -103q-13 18 -23 39q0 27 -6 59q-2 22 -2 32q0 87 61 148t148 61q27 0 51 -6zM112 55q-1 0 -1 2q-5 0 -8.5 4.5t-2.5 8.5q2 28 1.5 49t-3.5 34l-2 13q-3 15 -3 31q0 67 46.5 113.5t113.5 46.5q77 0 126 -62q7 -9 -2 -17
q-10 -7 -18 3q-40 52 -106 52q-56 0 -96 -40t-40 -96q0 -18 2 -26q12 -45 5 -105q0 -11 -12 -11zM170 270q7 8 18 1q9 -7 1 -17q-22 -25 -22 -57q0 -9 2 -15q13 -78 2 -146q-5 -25 -9 -38q-7 3 -22 12l3 15t3 16q10 67 -2 137q-2 11 -2 19q0 42 28 73zM253 258
q22 0 38.5 -13.5t21.5 -35.5q0 -2 3 -16t5.5 -42t2.5 -56q-2 -12 -13 -12q-3 0 -5.5 2t-4 5t-1.5 6q0 27 -3 54t-5 41l-3 14q-3 13 -13 21t-23 8q-16 0 -27 -11t-11 -27q0 -1 1 -3t1 -3q14 -88 2 -162q-4 -17 -12 -47l-12 3l-12 3q5 16 11 45q13 71 -2 154q-1 3 -1 10
q0 26 18 44t44 18zM310.5 60q4.5 -1 8 -5t1.5 -8q0 -6 -2 -17q-3 -19 -9 -45q-16 -4 -26 -5q7 28 11 53q1 2 1 5t0.5 6t1.5 5q0 5 4.5 8.5t9 2.5zM253 307q39 0 69.5 -24.5t39.5 -61.5q17 -93 8 -183q0 -5 -2 -15t-2 -14q-9 -6 -28 -14q3 14 8 46q9 84 -9 173
q-4 20 -16.5 35.5t-30 24.5t-37.5 9q-14 0 -30 -6q-12 -4 -16 8t7 16q20 6 39 6zM393 27q2 10 1 11q9 88 -10 184q-2 11 -4 16q-4 12 7 16q12 4 16 -8q4 -10 6 -18q17 -86 11 -175q-8 -9 -27 -26zM459 228q5 -22 9 -77q-6 -32 -22 -60q0 15 -0.5 30.5t-1.5 28t-2 24
t-2.5 20.5t-2.5 15.5t-1.5 10l-0.5 3.5v1q-6 42 -31 77.5t-63 55.5q-11 6 -5 17t17 6q42 -23 70 -63.5t36 -88.5z" />
    <glyph glyph-name="uniF140" unicode="&#xf140;" 
d="M21 218q8 4 24.5 15t33 20t37.5 18q42 18 89 18q44 0 84 -17q25 -10 56.5 -27.5t56.5 -29.5q8 -3 18.5 -7.5t17 -7t15 -6.5t13.5 -6.5t10 -6t8 -6.5t5 -7t2 -8v-32q0 -5 -5.5 -9t-9.5 -4h-51q-1 -3 -3.5 -8t-13 -13.5t-26.5 -8.5q-8 0 -14 2t-10.5 4.5t-8 5.5t-5 6.5
t-3 6t-1.5 4.5l-1 1h-178q-1 -3 -4 -8t-14.5 -13.5t-26.5 -8.5t-25.5 7.5t-13.5 15.5l-3 7h-23q-10 0 -19.5 10t-9.5 22q-1 13 -1 71z" />
    <glyph glyph-name="uniF141" unicode="&#xf141;" 
d="M448 427q18 0 30.5 -12.5t12.5 -30.5v-384q0 -18 -12.5 -30.5t-30.5 -12.5h-384q-18 0 -30.5 12.5t-12.5 30.5v384q0 18 12.5 30.5t30.5 12.5h384zM256 43q62 0 105.5 43.5t43.5 105.5t-43.5 105.5t-105.5 43.5q-58 0 -100.5 -38.5t-47.5 -95.5h105v22q0 6 6 6h74
q6 0 6 -6v-74q0 -6 -6 -6h-74q-6 0 -6 6v22h-105q5 -57 47.5 -95.5t100.5 -38.5z" />
    <glyph glyph-name="uniF142" unicode="&#xf142;" 
d="M212 37q-10 0 -19 8l-84 84q-8 8 -8 19t8 18q8 8 19 8t18 -8l61 -60l143 217q6 10 17 12t20.5 -4.5t11.5 -17t-4 -20.5l-160 -244q-7 -10 -20 -12h-3z" />
    <glyph glyph-name="uniF143" unicode="&#xf143;" 
d="M512 341h-341v-290l91 92q7 6 15.5 6t15 -6t6.5 -15t-7 -15l-128 -128q-6 -6 -14.5 -6t-15.5 6l-128 128q-6 6 -6 15t6.5 15t15 6t14.5 -6l92 -92v333h384v-43z" />
    <glyph glyph-name="uniF144" unicode="&#xf144;" 
d="M171 277.5q0 35.5 25 60.5t60 25t60 -25t25 -60.5t-25 -60.5t-60 -25t-60 25t-25 60.5zM256 448q106 0 181 -75t75 -181t-75 -181t-181 -75t-181 75t-75 181t75 181t181 75zM405 41q64 62 64 151q0 88 -62.5 150.5t-150.5 62.5t-150.5 -62.5t-62.5 -150.5q0 -89 64 -151
l8 40q6 30 29.5 49t53.5 19h116q30 0 53.5 -19t29.5 -49z" />
    <glyph glyph-name="uniF145" unicode="&#xf145;" 
d="M369 91q9 -8 3 -17q-51 -72 -135 -72q-5 0 -9 4t-4 9t3.5 9t9.5 4q71 0 114 59q7 11 18 4zM256 448q106 0 181 -75t75 -181t-75 -181t-181 -75t-181 75t-75 181t75 181t181 75zM256 421q-43 0 -81.5 -14.5t-69 -41t-50.5 -62.5h201h201q-31 54 -84 86t-117 32zM256 -37
q95 0 162.5 67t68.5 162q0 27 -6 52q-3 -12 -10 -24q-34 -74 -98 -74q-74 0 -116 101q-40 -101 -116 -101q-64 0 -98 74q-7 17 -10 24q-6 -25 -6 -52q0 -95 67 -162t162 -67z" />
  </font>
</defs>
</svg>
